<svg xmlns:xlink="http://www.w3.org/1999/xlink" width="6.827ex" height="2.176ex" style="font-size: 15px; vertical-align: -0.338ex;" viewBox="0 -791.3 2939.5 936.9" role="img" focusable="false" xmlns="http://www.w3.org/2000/svg">
<defs>
<path stroke-width="1" id="E1-MJMATHBI-45" d="M257 618H231Q198 618 198 636Q202 672 214 678L219 680H811Q817 677 820 673T824 666L825 664Q825 659 814 549T799 433Q793 424 771 424Q752 424 746 427T740 441Q740 445 742 466T744 505Q744 561 722 585T646 616Q639 617 545 618H456Q456 617 427 502T398 385Q398 384 435 384Q461 385 471 385T499 391T526 405T545 433T562 478Q566 494 571 497T595 501H604Q622 501 626 486Q626 482 593 349T557 213Q552 205 530 205Q499 205 499 219Q499 222 503 242T508 281Q508 308 491 314T429 322Q425 322 423 322H382L317 64Q317 62 390 62Q460 62 493 64T569 80T640 124Q665 149 686 187T719 253T733 283Q739 289 760 289Q791 289 791 274Q791 267 763 201T706 71L678 8Q676 4 667 0H58Q47 5 43 15Q47 54 60 60Q64 62 113 62H162L163 66Q163 67 231 341T301 616Q301 618 257 618Z"></path>
<path stroke-width="1" id="E1-MJMATHBI-75" d="M189 389Q189 397 187 399T176 401Q150 399 126 372T89 304Q84 288 81 285T61 282H55H44Q24 282 24 296Q24 307 35 331T65 383T117 431T187 452Q237 452 272 427T308 362Q308 347 273 254T238 111Q238 43 291 43Q319 43 344 58T380 86T391 103T426 247T464 396Q472 414 491 429T535 444T574 429T588 397Q588 390 570 315T534 168L516 97Q514 89 514 72Q514 42 531 42Q544 42 556 56Q574 76 589 134Q594 155 598 158T619 162H624H635Q655 162 655 148Q654 142 652 132T638 94T614 47T575 9T520 -8Q509 -8 498 -7T478 -3T461 2T446 8T434 16T424 23T416 29T410 35T406 39L405 41L397 34Q347 -7 288 -7H281Q148 -7 122 78Q116 95 116 125V136Q116 174 152 273T189 389Z"></path>
<path stroke-width="1" id="E1-MJMATHBI-6C" d="M157 -8Q138 -8 118 -4T77 11T41 42T27 91V106L156 622H152Q151 622 147 622T137 623T125 624T114 624T104 624T99 625Q87 628 87 642Q87 647 91 661T97 679Q101 684 112 685T188 690Q261 694 275 694Q292 694 296 679L151 91Q150 85 150 71Q150 42 167 42Q186 42 205 75Q216 96 225 134Q230 155 234 158T255 162H260H271Q291 162 291 148Q290 145 289 140T283 118T271 87T254 54T229 23T197 1T157 -8Z"></path>
<path stroke-width="1" id="E1-MJMATHBI-65" d="M260 -8Q196 -8 151 9T83 54T52 111T42 169Q42 188 44 210Q50 240 58 266Q127 434 335 451L338 452Q342 452 345 452Q347 452 353 452T363 451Q426 451 464 424T502 352Q502 289 442 250Q381 211 222 211H184Q184 210 181 196T175 162T171 126Q171 43 264 43Q391 43 457 105Q472 120 480 117Q486 114 497 102T509 83Q509 79 502 70T477 47T432 21T360 1T260 -8ZM237 262Q427 266 427 349Q427 368 409 384T354 401Q316 401 287 388T242 354T216 314T202 278L197 263Q197 262 237 262Z"></path>
<path stroke-width="1" id="E1-MJMATHBI-72" d="M24 296Q24 298 28 313T42 352T67 398T104 436T154 452Q198 452 230 437T273 404L282 411Q334 452 393 452Q441 452 470 423T500 350Q500 301 473 279T418 256Q395 256 379 270T363 308Q363 366 424 386Q424 388 420 391T405 398T385 401Q363 401 343 390Q321 380 289 341L252 192Q214 42 212 39Q190 -8 142 -8Q117 -8 103 7T89 39Q89 52 127 202T165 369Q165 402 148 402Q139 402 128 393T110 369Q100 348 90 310Q85 289 82 286T60 282H55H44Q24 282 24 296Z"></path>
</defs>
<g stroke="currentColor" fill="currentColor" stroke-width="0" transform="matrix(1 0 0 -1 0 0)">
 <use xlink:href="#E1-MJMATHBI-45" x="0" y="0"></use>
 <use xlink:href="#E1-MJMATHBI-75" x="825" y="0"></use>
 <use xlink:href="#E1-MJMATHBI-6C" x="1507" y="0"></use>
 <use xlink:href="#E1-MJMATHBI-65" x="1855" y="0"></use>
 <use xlink:href="#E1-MJMATHBI-72" x="2410" y="0"></use>
</g>
</svg>